<mxfile host="app.diagrams.net" modified="2021-03-18T06:34:09.461Z" agent="5.0 (Macintosh; Intel Mac OS X 11_1_0) AppleWebKit/537.36 (KHTML, like Gecko) Chrome/89.0.4389.82 Safari/537.36" etag="mdXEmXczs2GDDV5ObOMk" version="14.4.8" type="github">
  <diagram id="xCUNFjOkvXkAdmCDQcSl" name="Page-1">
    <mxGraphModel dx="5246" dy="2993" grid="1" gridSize="10" guides="1" tooltips="1" connect="1" arrows="1" fold="1" page="1" pageScale="1" pageWidth="827" pageHeight="1169" math="0" shadow="0">
      <root>
        <mxCell id="0" />
        <mxCell id="1" parent="0" />
        <mxCell id="mNS4h6scgJhuOr-iy2WU-1" value="&lt;b&gt;status&lt;/b&gt;" style="ellipse;whiteSpace=wrap;html=1;" parent="1" vertex="1">
          <mxGeometry x="-413" y="-130" width="120" height="80" as="geometry" />
        </mxCell>
        <mxCell id="mNS4h6scgJhuOr-iy2WU-2" value="&lt;span&gt;&lt;b&gt;USERS&lt;/b&gt;&lt;/span&gt;" style="rounded=0;whiteSpace=wrap;html=1;" parent="1" vertex="1">
          <mxGeometry x="-190" y="-30" width="120" height="60" as="geometry" />
        </mxCell>
        <mxCell id="mNS4h6scgJhuOr-iy2WU-3" value="" style="endArrow=none;html=1;entryX=0;entryY=0.5;entryDx=0;entryDy=0;exitX=1;exitY=0.5;exitDx=0;exitDy=0;" parent="1" source="mNS4h6scgJhuOr-iy2WU-1" target="mNS4h6scgJhuOr-iy2WU-2" edge="1">
          <mxGeometry width="50" height="50" relative="1" as="geometry">
            <mxPoint x="-270" y="310" as="sourcePoint" />
            <mxPoint x="-220" y="260" as="targetPoint" />
          </mxGeometry>
        </mxCell>
        <mxCell id="mNS4h6scgJhuOr-iy2WU-4" value="" style="endArrow=none;html=1;entryX=0.5;entryY=1;entryDx=0;entryDy=0;exitX=0.75;exitY=0;exitDx=0;exitDy=0;" parent="1" source="mNS4h6scgJhuOr-iy2WU-2" target="mNS4h6scgJhuOr-iy2WU-17" edge="1">
          <mxGeometry width="50" height="50" relative="1" as="geometry">
            <mxPoint x="-250" y="-20" as="sourcePoint" />
            <mxPoint x="-200" y="-70" as="targetPoint" />
          </mxGeometry>
        </mxCell>
        <mxCell id="mNS4h6scgJhuOr-iy2WU-5" value="" style="endArrow=none;html=1;entryX=0;entryY=0.5;entryDx=0;entryDy=0;exitX=1;exitY=0.75;exitDx=0;exitDy=0;" parent="1" source="mNS4h6scgJhuOr-iy2WU-2" target="mNS4h6scgJhuOr-iy2WU-12" edge="1">
          <mxGeometry width="50" height="50" relative="1" as="geometry">
            <mxPoint x="-130" y="250" as="sourcePoint" />
            <mxPoint x="-80" y="200" as="targetPoint" />
          </mxGeometry>
        </mxCell>
        <mxCell id="mNS4h6scgJhuOr-iy2WU-6" value="" style="endArrow=none;html=1;entryX=0.5;entryY=1;entryDx=0;entryDy=0;exitX=0.5;exitY=0;exitDx=0;exitDy=0;" parent="1" source="mNS4h6scgJhuOr-iy2WU-18" target="mNS4h6scgJhuOr-iy2WU-2" edge="1">
          <mxGeometry width="50" height="50" relative="1" as="geometry">
            <mxPoint x="-240" y="340" as="sourcePoint" />
            <mxPoint x="-190" y="290" as="targetPoint" />
          </mxGeometry>
        </mxCell>
        <mxCell id="mNS4h6scgJhuOr-iy2WU-7" value="" style="endArrow=none;html=1;entryX=1;entryY=1;entryDx=0;entryDy=0;exitX=0.2;exitY=-0.017;exitDx=0;exitDy=0;exitPerimeter=0;" parent="1" source="mNS4h6scgJhuOr-iy2WU-2" target="mNS4h6scgJhuOr-iy2WU-16" edge="1">
          <mxGeometry width="50" height="50" relative="1" as="geometry">
            <mxPoint x="-230" y="350" as="sourcePoint" />
            <mxPoint x="-180" y="300" as="targetPoint" />
          </mxGeometry>
        </mxCell>
        <mxCell id="mNS4h6scgJhuOr-iy2WU-8" value="" style="endArrow=none;html=1;entryX=0.75;entryY=1;entryDx=0;entryDy=0;exitX=0;exitY=0;exitDx=0;exitDy=0;" parent="1" source="mNS4h6scgJhuOr-iy2WU-14" target="mNS4h6scgJhuOr-iy2WU-2" edge="1">
          <mxGeometry width="50" height="50" relative="1" as="geometry">
            <mxPoint x="-220" y="360" as="sourcePoint" />
            <mxPoint x="-170" y="310" as="targetPoint" />
          </mxGeometry>
        </mxCell>
        <mxCell id="mNS4h6scgJhuOr-iy2WU-9" value="" style="endArrow=none;html=1;entryX=0.25;entryY=1;entryDx=0;entryDy=0;exitX=1;exitY=0;exitDx=0;exitDy=0;" parent="1" source="mNS4h6scgJhuOr-iy2WU-13" target="mNS4h6scgJhuOr-iy2WU-2" edge="1">
          <mxGeometry width="50" height="50" relative="1" as="geometry">
            <mxPoint x="-220" y="220" as="sourcePoint" />
            <mxPoint x="-170" y="170" as="targetPoint" />
          </mxGeometry>
        </mxCell>
        <mxCell id="mNS4h6scgJhuOr-iy2WU-10" value="" style="endArrow=none;html=1;entryX=0;entryY=1;entryDx=0;entryDy=0;exitX=0.95;exitY=0;exitDx=0;exitDy=0;exitPerimeter=0;" parent="1" source="mNS4h6scgJhuOr-iy2WU-2" target="mNS4h6scgJhuOr-iy2WU-15" edge="1">
          <mxGeometry width="50" height="50" relative="1" as="geometry">
            <mxPoint x="-120" y="250" as="sourcePoint" />
            <mxPoint x="-70" y="200" as="targetPoint" />
          </mxGeometry>
        </mxCell>
        <mxCell id="mNS4h6scgJhuOr-iy2WU-12" value="&lt;b&gt;password&lt;/b&gt;" style="ellipse;whiteSpace=wrap;html=1;" parent="1" vertex="1">
          <mxGeometry x="100" y="20" width="120" height="80" as="geometry" />
        </mxCell>
        <mxCell id="mNS4h6scgJhuOr-iy2WU-13" value="&lt;b&gt;enabled&lt;/b&gt;" style="ellipse;whiteSpace=wrap;html=1;" parent="1" vertex="1">
          <mxGeometry x="-340" y="60" width="120" height="80" as="geometry" />
        </mxCell>
        <mxCell id="mNS4h6scgJhuOr-iy2WU-14" value="&lt;b&gt;updatedAt&lt;/b&gt;" style="ellipse;whiteSpace=wrap;html=1;" parent="1" vertex="1">
          <mxGeometry x="-10" y="70" width="120" height="80" as="geometry" />
        </mxCell>
        <mxCell id="mNS4h6scgJhuOr-iy2WU-15" value="&lt;b&gt;phone&lt;/b&gt;" style="ellipse;whiteSpace=wrap;html=1;" parent="1" vertex="1">
          <mxGeometry x="30" y="-115" width="120" height="80" as="geometry" />
        </mxCell>
        <mxCell id="mNS4h6scgJhuOr-iy2WU-16" value="&lt;u&gt;&lt;b&gt;id&lt;/b&gt;&lt;/u&gt;" style="ellipse;whiteSpace=wrap;html=1;" parent="1" vertex="1">
          <mxGeometry x="-290" y="-165" width="120" height="80" as="geometry" />
        </mxCell>
        <mxCell id="mNS4h6scgJhuOr-iy2WU-17" value="&lt;b&gt;name&lt;/b&gt;" style="ellipse;whiteSpace=wrap;html=1;" parent="1" vertex="1">
          <mxGeometry x="-110" y="-150" width="120" height="80" as="geometry" />
        </mxCell>
        <mxCell id="mNS4h6scgJhuOr-iy2WU-18" value="&lt;b&gt;createdAt&lt;/b&gt;" style="ellipse;whiteSpace=wrap;html=1;" parent="1" vertex="1">
          <mxGeometry x="-200" y="80" width="120" height="80" as="geometry" />
        </mxCell>
        <mxCell id="mNS4h6scgJhuOr-iy2WU-19" value="&lt;b&gt;email&lt;/b&gt;" style="ellipse;whiteSpace=wrap;html=1;" parent="1" vertex="1">
          <mxGeometry x="740" y="-90" width="120" height="80" as="geometry" />
        </mxCell>
        <mxCell id="mNS4h6scgJhuOr-iy2WU-20" value="&lt;span&gt;&lt;b&gt;USER_DETAILS&lt;/b&gt;&lt;/span&gt;" style="rounded=0;whiteSpace=wrap;html=1;" parent="1" vertex="1">
          <mxGeometry x="940" y="-30" width="120" height="60" as="geometry" />
        </mxCell>
        <mxCell id="mNS4h6scgJhuOr-iy2WU-21" value="" style="endArrow=none;html=1;entryX=0;entryY=0.25;entryDx=0;entryDy=0;exitX=1;exitY=0.5;exitDx=0;exitDy=0;" parent="1" source="mNS4h6scgJhuOr-iy2WU-19" target="mNS4h6scgJhuOr-iy2WU-20" edge="1">
          <mxGeometry width="50" height="50" relative="1" as="geometry">
            <mxPoint x="860" y="310" as="sourcePoint" />
            <mxPoint x="910" y="260" as="targetPoint" />
          </mxGeometry>
        </mxCell>
        <mxCell id="mNS4h6scgJhuOr-iy2WU-22" value="" style="endArrow=none;html=1;entryX=0.5;entryY=1;entryDx=0;entryDy=0;exitX=0.5;exitY=0;exitDx=0;exitDy=0;" parent="1" source="mNS4h6scgJhuOr-iy2WU-20" target="mNS4h6scgJhuOr-iy2WU-34" edge="1">
          <mxGeometry width="50" height="50" relative="1" as="geometry">
            <mxPoint x="880" y="-20" as="sourcePoint" />
            <mxPoint x="930" y="-70" as="targetPoint" />
          </mxGeometry>
        </mxCell>
        <mxCell id="mNS4h6scgJhuOr-iy2WU-23" value="" style="endArrow=none;html=1;entryX=0;entryY=0.5;entryDx=0;entryDy=0;exitX=1;exitY=0.5;exitDx=0;exitDy=0;" parent="1" source="mNS4h6scgJhuOr-iy2WU-20" target="mNS4h6scgJhuOr-iy2WU-29" edge="1">
          <mxGeometry width="50" height="50" relative="1" as="geometry">
            <mxPoint x="1000" y="250" as="sourcePoint" />
            <mxPoint x="1050" y="200" as="targetPoint" />
          </mxGeometry>
        </mxCell>
        <mxCell id="mNS4h6scgJhuOr-iy2WU-24" value="" style="endArrow=none;html=1;entryX=0.25;entryY=1;entryDx=0;entryDy=0;exitX=0.5;exitY=0;exitDx=0;exitDy=0;" parent="1" source="mNS4h6scgJhuOr-iy2WU-35" target="mNS4h6scgJhuOr-iy2WU-20" edge="1">
          <mxGeometry width="50" height="50" relative="1" as="geometry">
            <mxPoint x="890" y="340" as="sourcePoint" />
            <mxPoint x="940" y="290" as="targetPoint" />
          </mxGeometry>
        </mxCell>
        <mxCell id="mNS4h6scgJhuOr-iy2WU-25" value="" style="endArrow=none;html=1;entryX=1;entryY=1;entryDx=0;entryDy=0;exitX=0.2;exitY=-0.017;exitDx=0;exitDy=0;exitPerimeter=0;" parent="1" source="mNS4h6scgJhuOr-iy2WU-20" target="mNS4h6scgJhuOr-iy2WU-33" edge="1">
          <mxGeometry width="50" height="50" relative="1" as="geometry">
            <mxPoint x="900" y="350" as="sourcePoint" />
            <mxPoint x="950" y="300" as="targetPoint" />
          </mxGeometry>
        </mxCell>
        <mxCell id="mNS4h6scgJhuOr-iy2WU-26" value="" style="endArrow=none;html=1;entryX=0.75;entryY=1;entryDx=0;entryDy=0;exitX=0.5;exitY=0;exitDx=0;exitDy=0;" parent="1" source="mNS4h6scgJhuOr-iy2WU-31" target="mNS4h6scgJhuOr-iy2WU-20" edge="1">
          <mxGeometry width="50" height="50" relative="1" as="geometry">
            <mxPoint x="910" y="360" as="sourcePoint" />
            <mxPoint x="960" y="310" as="targetPoint" />
          </mxGeometry>
        </mxCell>
        <mxCell id="mNS4h6scgJhuOr-iy2WU-27" value="" style="endArrow=none;html=1;entryX=0;entryY=0.75;entryDx=0;entryDy=0;exitX=1;exitY=0;exitDx=0;exitDy=0;" parent="1" source="mNS4h6scgJhuOr-iy2WU-30" target="mNS4h6scgJhuOr-iy2WU-20" edge="1">
          <mxGeometry width="50" height="50" relative="1" as="geometry">
            <mxPoint x="910" y="220" as="sourcePoint" />
            <mxPoint x="960" y="170" as="targetPoint" />
          </mxGeometry>
        </mxCell>
        <mxCell id="mNS4h6scgJhuOr-iy2WU-28" value="" style="endArrow=none;html=1;entryX=0;entryY=1;entryDx=0;entryDy=0;exitX=0.95;exitY=0;exitDx=0;exitDy=0;exitPerimeter=0;" parent="1" source="mNS4h6scgJhuOr-iy2WU-20" target="mNS4h6scgJhuOr-iy2WU-32" edge="1">
          <mxGeometry width="50" height="50" relative="1" as="geometry">
            <mxPoint x="1010" y="250" as="sourcePoint" />
            <mxPoint x="1060" y="200" as="targetPoint" />
          </mxGeometry>
        </mxCell>
        <mxCell id="mNS4h6scgJhuOr-iy2WU-29" value="&lt;b&gt;about&lt;/b&gt;" style="ellipse;whiteSpace=wrap;html=1;" parent="1" vertex="1">
          <mxGeometry x="1160" y="-80" width="120" height="80" as="geometry" />
        </mxCell>
        <mxCell id="mNS4h6scgJhuOr-iy2WU-30" value="&lt;b&gt;basic_qualification&lt;/b&gt;" style="ellipse;whiteSpace=wrap;html=1;" parent="1" vertex="1">
          <mxGeometry x="730" y="20" width="120" height="80" as="geometry" />
        </mxCell>
        <mxCell id="mNS4h6scgJhuOr-iy2WU-31" value="&lt;b&gt;photo_id_proof&lt;/b&gt;" style="ellipse;whiteSpace=wrap;html=1;" parent="1" vertex="1">
          <mxGeometry x="970" y="80" width="120" height="80" as="geometry" />
        </mxCell>
        <mxCell id="mNS4h6scgJhuOr-iy2WU-32" value="&lt;b&gt;date_of_birth&lt;/b&gt;" style="ellipse;whiteSpace=wrap;html=1;" parent="1" vertex="1">
          <mxGeometry x="1090" y="-160" width="120" height="80" as="geometry" />
        </mxCell>
        <mxCell id="mNS4h6scgJhuOr-iy2WU-33" value="&lt;u&gt;&lt;b&gt;id&lt;/b&gt;&lt;/u&gt;" style="ellipse;whiteSpace=wrap;html=1;" parent="1" vertex="1">
          <mxGeometry x="830" y="-150" width="120" height="80" as="geometry" />
        </mxCell>
        <mxCell id="mNS4h6scgJhuOr-iy2WU-34" value="&lt;b&gt;gender&lt;/b&gt;" style="ellipse;whiteSpace=wrap;html=1;" parent="1" vertex="1">
          <mxGeometry x="960" y="-170" width="120" height="80" as="geometry" />
        </mxCell>
        <mxCell id="mNS4h6scgJhuOr-iy2WU-35" value="&lt;b&gt;photo&lt;/b&gt;" style="ellipse;whiteSpace=wrap;html=1;" parent="1" vertex="1">
          <mxGeometry x="840" y="80" width="120" height="80" as="geometry" />
        </mxCell>
        <mxCell id="mNS4h6scgJhuOr-iy2WU-36" value="&lt;b&gt;updatedAt&lt;/b&gt;" style="ellipse;whiteSpace=wrap;html=1;" parent="1" vertex="1">
          <mxGeometry x="1100" y="70" width="120" height="80" as="geometry" />
        </mxCell>
        <mxCell id="mNS4h6scgJhuOr-iy2WU-37" value="" style="endArrow=none;html=1;entryX=1;entryY=1;entryDx=0;entryDy=0;exitX=0;exitY=0;exitDx=0;exitDy=0;" parent="1" source="mNS4h6scgJhuOr-iy2WU-36" target="mNS4h6scgJhuOr-iy2WU-20" edge="1">
          <mxGeometry width="50" height="50" relative="1" as="geometry">
            <mxPoint x="1050" y="110" as="sourcePoint" />
            <mxPoint x="1040" y="40" as="targetPoint" />
          </mxGeometry>
        </mxCell>
        <mxCell id="mNS4h6scgJhuOr-iy2WU-38" value="&lt;b&gt;createdAt&lt;/b&gt;" style="ellipse;whiteSpace=wrap;html=1;" parent="1" vertex="1">
          <mxGeometry x="1190" width="120" height="80" as="geometry" />
        </mxCell>
        <mxCell id="mNS4h6scgJhuOr-iy2WU-39" value="" style="endArrow=none;html=1;entryX=1;entryY=0.75;entryDx=0;entryDy=0;exitX=0;exitY=0.5;exitDx=0;exitDy=0;" parent="1" source="mNS4h6scgJhuOr-iy2WU-38" target="mNS4h6scgJhuOr-iy2WU-20" edge="1">
          <mxGeometry width="50" height="50" relative="1" as="geometry">
            <mxPoint x="1190" y="30" as="sourcePoint" />
            <mxPoint x="1070" y="40" as="targetPoint" />
          </mxGeometry>
        </mxCell>
        <mxCell id="mNS4h6scgJhuOr-iy2WU-41" value="&lt;b&gt;MEDICAL_REGISTRATIONS&lt;/b&gt;" style="rounded=0;whiteSpace=wrap;html=1;" parent="1" vertex="1">
          <mxGeometry x="-240" y="615" width="180" height="60" as="geometry" />
        </mxCell>
        <mxCell id="mNS4h6scgJhuOr-iy2WU-43" value="" style="endArrow=none;html=1;entryX=1;entryY=1;entryDx=0;entryDy=0;exitX=0.25;exitY=0;exitDx=0;exitDy=0;" parent="1" source="mNS4h6scgJhuOr-iy2WU-41" target="mNS4h6scgJhuOr-iy2WU-55" edge="1">
          <mxGeometry width="50" height="50" relative="1" as="geometry">
            <mxPoint x="-280" y="625" as="sourcePoint" />
            <mxPoint x="-230" y="575" as="targetPoint" />
          </mxGeometry>
        </mxCell>
        <mxCell id="mNS4h6scgJhuOr-iy2WU-44" value="" style="endArrow=none;html=1;entryX=0;entryY=0.5;entryDx=0;entryDy=0;exitX=0;exitY=0.5;exitDx=0;exitDy=0;" parent="1" source="mNS4h6scgJhuOr-iy2WU-41" target="mNS4h6scgJhuOr-iy2WU-50" edge="1">
          <mxGeometry width="50" height="50" relative="1" as="geometry">
            <mxPoint x="-160" y="895" as="sourcePoint" />
            <mxPoint x="-110" y="845" as="targetPoint" />
          </mxGeometry>
        </mxCell>
        <mxCell id="mNS4h6scgJhuOr-iy2WU-45" value="" style="endArrow=none;html=1;exitX=0.5;exitY=0;exitDx=0;exitDy=0;entryX=0.5;entryY=1;entryDx=0;entryDy=0;" parent="1" source="mNS4h6scgJhuOr-iy2WU-56" target="mNS4h6scgJhuOr-iy2WU-41" edge="1">
          <mxGeometry width="50" height="50" relative="1" as="geometry">
            <mxPoint x="-270" y="985" as="sourcePoint" />
            <mxPoint x="-110" y="675" as="targetPoint" />
          </mxGeometry>
        </mxCell>
        <mxCell id="mNS4h6scgJhuOr-iy2WU-46" value="" style="endArrow=none;html=1;entryX=0;entryY=1;entryDx=0;entryDy=0;exitX=0.75;exitY=0;exitDx=0;exitDy=0;" parent="1" source="mNS4h6scgJhuOr-iy2WU-41" target="mNS4h6scgJhuOr-iy2WU-54" edge="1">
          <mxGeometry width="50" height="50" relative="1" as="geometry">
            <mxPoint x="-80" y="605" as="sourcePoint" />
            <mxPoint x="-210" y="945" as="targetPoint" />
          </mxGeometry>
        </mxCell>
        <mxCell id="mNS4h6scgJhuOr-iy2WU-47" value="" style="endArrow=none;html=1;exitX=0.5;exitY=0;exitDx=0;exitDy=0;" parent="1" source="mNS4h6scgJhuOr-iy2WU-52" edge="1">
          <mxGeometry width="50" height="50" relative="1" as="geometry">
            <mxPoint x="-250" y="1005" as="sourcePoint" />
            <mxPoint x="-180" y="675" as="targetPoint" />
          </mxGeometry>
        </mxCell>
        <mxCell id="mNS4h6scgJhuOr-iy2WU-49" value="" style="endArrow=none;html=1;entryX=0.5;entryY=1;entryDx=0;entryDy=0;exitX=0.5;exitY=0;exitDx=0;exitDy=0;" parent="1" source="mNS4h6scgJhuOr-iy2WU-41" target="mNS4h6scgJhuOr-iy2WU-53" edge="1">
          <mxGeometry width="50" height="50" relative="1" as="geometry">
            <mxPoint x="-150" y="895" as="sourcePoint" />
            <mxPoint x="-100" y="845" as="targetPoint" />
          </mxGeometry>
        </mxCell>
        <mxCell id="mNS4h6scgJhuOr-iy2WU-50" value="&lt;b&gt;registration_council&lt;/b&gt;" style="ellipse;whiteSpace=wrap;html=1;" parent="1" vertex="1">
          <mxGeometry x="-440" y="605" width="140" height="80" as="geometry" />
        </mxCell>
        <mxCell id="mNS4h6scgJhuOr-iy2WU-52" value="&lt;b&gt;registration_year&lt;/b&gt;" style="ellipse;whiteSpace=wrap;html=1;" parent="1" vertex="1">
          <mxGeometry x="-341.5" y="715" width="120" height="80" as="geometry" />
        </mxCell>
        <mxCell id="mNS4h6scgJhuOr-iy2WU-53" value="&lt;b&gt;registration_council&lt;/b&gt;" style="ellipse;whiteSpace=wrap;html=1;" parent="1" vertex="1">
          <mxGeometry x="-221.5" y="475" width="143" height="90" as="geometry" />
        </mxCell>
        <mxCell id="mNS4h6scgJhuOr-iy2WU-54" value="&lt;u&gt;&lt;b&gt;id&lt;/b&gt;&lt;/u&gt;" style="ellipse;whiteSpace=wrap;html=1;" parent="1" vertex="1">
          <mxGeometry x="10" y="505" width="120" height="80" as="geometry" />
        </mxCell>
        <mxCell id="mNS4h6scgJhuOr-iy2WU-55" value="&lt;b&gt;registration_no&lt;/b&gt;" style="ellipse;whiteSpace=wrap;html=1;" parent="1" vertex="1">
          <mxGeometry x="-360" y="495" width="120" height="80" as="geometry" />
        </mxCell>
        <mxCell id="mNS4h6scgJhuOr-iy2WU-56" value="&lt;b&gt;document_proof&lt;/b&gt;" style="ellipse;whiteSpace=wrap;html=1;" parent="1" vertex="1">
          <mxGeometry x="-210" y="725" width="120" height="80" as="geometry" />
        </mxCell>
        <mxCell id="mNS4h6scgJhuOr-iy2WU-57" value="&lt;b&gt;updatedAt&lt;/b&gt;" style="ellipse;whiteSpace=wrap;html=1;" parent="1" vertex="1">
          <mxGeometry x="-50" y="715" width="120" height="80" as="geometry" />
        </mxCell>
        <mxCell id="mNS4h6scgJhuOr-iy2WU-58" value="" style="endArrow=none;html=1;entryX=0.75;entryY=1;entryDx=0;entryDy=0;exitX=0;exitY=0;exitDx=0;exitDy=0;" parent="1" source="mNS4h6scgJhuOr-iy2WU-57" target="mNS4h6scgJhuOr-iy2WU-41" edge="1">
          <mxGeometry width="50" height="50" relative="1" as="geometry">
            <mxPoint x="-110" y="755" as="sourcePoint" />
            <mxPoint x="-120" y="685" as="targetPoint" />
          </mxGeometry>
        </mxCell>
        <mxCell id="mNS4h6scgJhuOr-iy2WU-59" value="&lt;b&gt;createdAt&lt;/b&gt;" style="ellipse;whiteSpace=wrap;html=1;" parent="1" vertex="1">
          <mxGeometry x="10" y="605" width="120" height="80" as="geometry" />
        </mxCell>
        <mxCell id="mNS4h6scgJhuOr-iy2WU-60" value="" style="endArrow=none;html=1;entryX=1;entryY=0.5;entryDx=0;entryDy=0;exitX=0;exitY=0.5;exitDx=0;exitDy=0;" parent="1" source="mNS4h6scgJhuOr-iy2WU-59" target="mNS4h6scgJhuOr-iy2WU-41" edge="1">
          <mxGeometry width="50" height="50" relative="1" as="geometry">
            <mxPoint x="30" y="675" as="sourcePoint" />
            <mxPoint x="-90" y="685" as="targetPoint" />
          </mxGeometry>
        </mxCell>
        <mxCell id="mNS4h6scgJhuOr-iy2WU-61" value="&lt;b&gt;EDUCATION_QUALIFICATIONS&lt;/b&gt;" style="rounded=0;whiteSpace=wrap;html=1;" parent="1" vertex="1">
          <mxGeometry x="-1160" y="280" width="220" height="60" as="geometry" />
        </mxCell>
        <mxCell id="mNS4h6scgJhuOr-iy2WU-62" value="" style="endArrow=none;html=1;entryX=1;entryY=1;entryDx=0;entryDy=0;exitX=0.25;exitY=0;exitDx=0;exitDy=0;" parent="1" source="mNS4h6scgJhuOr-iy2WU-61" target="mNS4h6scgJhuOr-iy2WU-72" edge="1">
          <mxGeometry width="50" height="50" relative="1" as="geometry">
            <mxPoint x="-1180" y="290" as="sourcePoint" />
            <mxPoint x="-1130" y="240" as="targetPoint" />
          </mxGeometry>
        </mxCell>
        <mxCell id="mNS4h6scgJhuOr-iy2WU-63" value="" style="endArrow=none;html=1;entryX=0;entryY=0.5;entryDx=0;entryDy=0;exitX=0;exitY=0.5;exitDx=0;exitDy=0;" parent="1" source="mNS4h6scgJhuOr-iy2WU-61" target="mNS4h6scgJhuOr-iy2WU-68" edge="1">
          <mxGeometry width="50" height="50" relative="1" as="geometry">
            <mxPoint x="-1060" y="560" as="sourcePoint" />
            <mxPoint x="-1010" y="510" as="targetPoint" />
          </mxGeometry>
        </mxCell>
        <mxCell id="mNS4h6scgJhuOr-iy2WU-64" value="" style="endArrow=none;html=1;exitX=0.5;exitY=0;exitDx=0;exitDy=0;entryX=0.25;entryY=1;entryDx=0;entryDy=0;" parent="1" source="mNS4h6scgJhuOr-iy2WU-73" target="mNS4h6scgJhuOr-iy2WU-61" edge="1">
          <mxGeometry width="50" height="50" relative="1" as="geometry">
            <mxPoint x="-1170" y="650" as="sourcePoint" />
            <mxPoint x="-1010" y="340" as="targetPoint" />
          </mxGeometry>
        </mxCell>
        <mxCell id="mNS4h6scgJhuOr-iy2WU-65" value="" style="endArrow=none;html=1;entryX=0;entryY=1;entryDx=0;entryDy=0;exitX=0.75;exitY=0;exitDx=0;exitDy=0;" parent="1" source="mNS4h6scgJhuOr-iy2WU-61" target="mNS4h6scgJhuOr-iy2WU-71" edge="1">
          <mxGeometry width="50" height="50" relative="1" as="geometry">
            <mxPoint x="-980" y="270" as="sourcePoint" />
            <mxPoint x="-1110" y="610" as="targetPoint" />
          </mxGeometry>
        </mxCell>
        <mxCell id="mNS4h6scgJhuOr-iy2WU-67" value="" style="endArrow=none;html=1;entryX=0.5;entryY=1;entryDx=0;entryDy=0;exitX=0.5;exitY=0;exitDx=0;exitDy=0;" parent="1" source="mNS4h6scgJhuOr-iy2WU-61" target="mNS4h6scgJhuOr-iy2WU-70" edge="1">
          <mxGeometry width="50" height="50" relative="1" as="geometry">
            <mxPoint x="-1050" y="560" as="sourcePoint" />
            <mxPoint x="-1000" y="510" as="targetPoint" />
          </mxGeometry>
        </mxCell>
        <mxCell id="mNS4h6scgJhuOr-iy2WU-68" value="&lt;b&gt;education_year&lt;/b&gt;" style="ellipse;whiteSpace=wrap;html=1;" parent="1" vertex="1">
          <mxGeometry x="-1340" y="270" width="140" height="80" as="geometry" />
        </mxCell>
        <mxCell id="mNS4h6scgJhuOr-iy2WU-70" value="&lt;b&gt;qualification&lt;/b&gt;" style="ellipse;whiteSpace=wrap;html=1;" parent="1" vertex="1">
          <mxGeometry x="-1106.5" y="140" width="143" height="90" as="geometry" />
        </mxCell>
        <mxCell id="mNS4h6scgJhuOr-iy2WU-71" value="&lt;u&gt;&lt;b&gt;id&lt;/b&gt;&lt;/u&gt;" style="ellipse;whiteSpace=wrap;html=1;" parent="1" vertex="1">
          <mxGeometry x="-960" y="170" width="120" height="80" as="geometry" />
        </mxCell>
        <mxCell id="mNS4h6scgJhuOr-iy2WU-72" value="&lt;b&gt;college_university&lt;/b&gt;" style="ellipse;whiteSpace=wrap;html=1;" parent="1" vertex="1">
          <mxGeometry x="-1230" y="150" width="120" height="80" as="geometry" />
        </mxCell>
        <mxCell id="mNS4h6scgJhuOr-iy2WU-73" value="&lt;b&gt;document_proof&lt;/b&gt;" style="ellipse;whiteSpace=wrap;html=1;" parent="1" vertex="1">
          <mxGeometry x="-1200" y="390" width="120" height="80" as="geometry" />
        </mxCell>
        <mxCell id="mNS4h6scgJhuOr-iy2WU-74" value="&lt;b&gt;updatedAt&lt;/b&gt;" style="ellipse;whiteSpace=wrap;html=1;" parent="1" vertex="1">
          <mxGeometry x="-1060" y="395" width="120" height="80" as="geometry" />
        </mxCell>
        <mxCell id="mNS4h6scgJhuOr-iy2WU-75" value="" style="endArrow=none;html=1;entryX=0.5;entryY=1;entryDx=0;entryDy=0;exitX=0;exitY=0;exitDx=0;exitDy=0;" parent="1" source="mNS4h6scgJhuOr-iy2WU-74" target="mNS4h6scgJhuOr-iy2WU-61" edge="1">
          <mxGeometry width="50" height="50" relative="1" as="geometry">
            <mxPoint x="-1010" y="420" as="sourcePoint" />
            <mxPoint x="-1020" y="350" as="targetPoint" />
          </mxGeometry>
        </mxCell>
        <mxCell id="mNS4h6scgJhuOr-iy2WU-76" value="&lt;b&gt;createdAt&lt;/b&gt;" style="ellipse;whiteSpace=wrap;html=1;" parent="1" vertex="1">
          <mxGeometry x="-900" y="365" width="120" height="80" as="geometry" />
        </mxCell>
        <mxCell id="mNS4h6scgJhuOr-iy2WU-77" value="" style="endArrow=none;html=1;entryX=0.75;entryY=1;entryDx=0;entryDy=0;exitX=0;exitY=0.5;exitDx=0;exitDy=0;" parent="1" source="mNS4h6scgJhuOr-iy2WU-76" target="mNS4h6scgJhuOr-iy2WU-61" edge="1">
          <mxGeometry width="50" height="50" relative="1" as="geometry">
            <mxPoint x="-870" y="340" as="sourcePoint" />
            <mxPoint x="-990" y="350" as="targetPoint" />
          </mxGeometry>
        </mxCell>
        <mxCell id="-LMKMiagCElDo1qkPN0c-31" value="&lt;b&gt;Register&lt;/b&gt;" style="rhombus;whiteSpace=wrap;html=1;" vertex="1" parent="1">
          <mxGeometry x="348.5" y="-40" width="80" height="80" as="geometry" />
        </mxCell>
        <mxCell id="-LMKMiagCElDo1qkPN0c-33" value="" style="endArrow=none;html=1;entryX=1;entryY=0.5;entryDx=0;entryDy=0;exitX=0;exitY=0.5;exitDx=0;exitDy=0;" edge="1" parent="1" source="-LMKMiagCElDo1qkPN0c-31" target="mNS4h6scgJhuOr-iy2WU-2">
          <mxGeometry width="50" height="50" relative="1" as="geometry">
            <mxPoint x="20" y="90.00000000000023" as="sourcePoint" />
            <mxPoint x="-60" y="75.00000000000023" as="targetPoint" />
          </mxGeometry>
        </mxCell>
        <mxCell id="-LMKMiagCElDo1qkPN0c-34" value="" style="endArrow=none;html=1;entryX=0;entryY=0.5;entryDx=0;entryDy=0;exitX=1;exitY=0.5;exitDx=0;exitDy=0;" edge="1" parent="1" source="-LMKMiagCElDo1qkPN0c-31" target="mNS4h6scgJhuOr-iy2WU-20">
          <mxGeometry width="50" height="50" relative="1" as="geometry">
            <mxPoint x="286" y="140.00000000000023" as="sourcePoint" />
            <mxPoint x="691" y="140.00000000000023" as="targetPoint" />
          </mxGeometry>
        </mxCell>
        <mxCell id="-LMKMiagCElDo1qkPN0c-37" value="Gives" style="rhombus;whiteSpace=wrap;html=1;" vertex="1" parent="1">
          <mxGeometry x="-640" y="140" width="80" height="80" as="geometry" />
        </mxCell>
        <mxCell id="-LMKMiagCElDo1qkPN0c-38" value="Gives" style="rhombus;whiteSpace=wrap;html=1;" vertex="1" parent="1">
          <mxGeometry x="-110" y="310" width="80" height="80" as="geometry" />
        </mxCell>
        <mxCell id="-LMKMiagCElDo1qkPN0c-44" value="" style="endArrow=none;html=1;exitX=0.635;exitY=0.997;exitDx=0;exitDy=0;entryX=0.5;entryY=0;entryDx=0;entryDy=0;exitPerimeter=0;" edge="1" parent="1" source="mNS4h6scgJhuOr-iy2WU-2" target="-LMKMiagCElDo1qkPN0c-38">
          <mxGeometry width="50" height="50" relative="1" as="geometry">
            <mxPoint x="-60" y="10" as="sourcePoint" />
            <mxPoint x="-130" y="270" as="targetPoint" />
            <Array as="points">
              <mxPoint x="-70" y="110" />
            </Array>
          </mxGeometry>
        </mxCell>
        <mxCell id="-LMKMiagCElDo1qkPN0c-45" value="" style="endArrow=none;html=1;exitX=0.5;exitY=1;exitDx=0;exitDy=0;entryX=0.68;entryY=0.013;entryDx=0;entryDy=0;entryPerimeter=0;" edge="1" parent="1" source="-LMKMiagCElDo1qkPN0c-38" target="mNS4h6scgJhuOr-iy2WU-41">
          <mxGeometry width="50" height="50" relative="1" as="geometry">
            <mxPoint x="-40" y="260" as="sourcePoint" />
            <mxPoint x="-130" y="614" as="targetPoint" />
            <Array as="points">
              <mxPoint x="-60" y="520" />
            </Array>
          </mxGeometry>
        </mxCell>
        <mxCell id="-LMKMiagCElDo1qkPN0c-55" value="&lt;b&gt;PAYMENT&lt;/b&gt;" style="rounded=0;whiteSpace=wrap;html=1;" vertex="1" parent="1">
          <mxGeometry x="-237.25" y="-730" width="220" height="60" as="geometry" />
        </mxCell>
        <mxCell id="-LMKMiagCElDo1qkPN0c-56" value="" style="endArrow=none;html=1;entryX=0.5;entryY=1;entryDx=0;entryDy=0;exitX=0.25;exitY=0;exitDx=0;exitDy=0;" edge="1" parent="1" source="-LMKMiagCElDo1qkPN0c-55" target="-LMKMiagCElDo1qkPN0c-64">
          <mxGeometry width="50" height="50" relative="1" as="geometry">
            <mxPoint x="-257.25" y="-720" as="sourcePoint" />
            <mxPoint x="-207.25" y="-770" as="targetPoint" />
          </mxGeometry>
        </mxCell>
        <mxCell id="-LMKMiagCElDo1qkPN0c-60" value="" style="endArrow=none;html=1;entryX=0.5;entryY=1;entryDx=0;entryDy=0;exitX=0.75;exitY=0;exitDx=0;exitDy=0;" edge="1" parent="1" source="-LMKMiagCElDo1qkPN0c-55" target="-LMKMiagCElDo1qkPN0c-62">
          <mxGeometry width="50" height="50" relative="1" as="geometry">
            <mxPoint x="-127.25" y="-450" as="sourcePoint" />
            <mxPoint x="-77.25" y="-500" as="targetPoint" />
          </mxGeometry>
        </mxCell>
        <mxCell id="-LMKMiagCElDo1qkPN0c-62" value="&lt;b&gt;amount&lt;/b&gt;" style="ellipse;whiteSpace=wrap;html=1;" vertex="1" parent="1">
          <mxGeometry x="-118.75" y="-870" width="143" height="90" as="geometry" />
        </mxCell>
        <mxCell id="-LMKMiagCElDo1qkPN0c-64" value="&lt;b&gt;&lt;u&gt;id&lt;/u&gt;&lt;/b&gt;" style="ellipse;whiteSpace=wrap;html=1;" vertex="1" parent="1">
          <mxGeometry x="-284.25" y="-865" width="120" height="80" as="geometry" />
        </mxCell>
        <mxCell id="-LMKMiagCElDo1qkPN0c-66" value="&lt;b&gt;updatedAt&lt;/b&gt;" style="ellipse;whiteSpace=wrap;html=1;" vertex="1" parent="1">
          <mxGeometry x="-277.25" y="-610" width="120" height="80" as="geometry" />
        </mxCell>
        <mxCell id="-LMKMiagCElDo1qkPN0c-67" value="" style="endArrow=none;html=1;entryX=0.25;entryY=1;entryDx=0;entryDy=0;exitX=0.5;exitY=0;exitDx=0;exitDy=0;" edge="1" parent="1" source="-LMKMiagCElDo1qkPN0c-66" target="-LMKMiagCElDo1qkPN0c-55">
          <mxGeometry width="50" height="50" relative="1" as="geometry">
            <mxPoint x="-87.25" y="-590" as="sourcePoint" />
            <mxPoint x="-97.25" y="-660" as="targetPoint" />
          </mxGeometry>
        </mxCell>
        <mxCell id="-LMKMiagCElDo1qkPN0c-68" value="&lt;b&gt;createdAt&lt;/b&gt;" style="ellipse;whiteSpace=wrap;html=1;" vertex="1" parent="1">
          <mxGeometry x="-95.75" y="-610" width="120" height="80" as="geometry" />
        </mxCell>
        <mxCell id="-LMKMiagCElDo1qkPN0c-69" value="" style="endArrow=none;html=1;entryX=0.75;entryY=1;entryDx=0;entryDy=0;exitX=0.5;exitY=0;exitDx=0;exitDy=0;" edge="1" parent="1" source="-LMKMiagCElDo1qkPN0c-68" target="-LMKMiagCElDo1qkPN0c-55">
          <mxGeometry width="50" height="50" relative="1" as="geometry">
            <mxPoint x="52.75" y="-670" as="sourcePoint" />
            <mxPoint x="-67.25" y="-660" as="targetPoint" />
          </mxGeometry>
        </mxCell>
        <mxCell id="-LMKMiagCElDo1qkPN0c-70" value="Makes" style="rhombus;whiteSpace=wrap;html=1;" vertex="1" parent="1">
          <mxGeometry x="-170" y="-470" width="80" height="80" as="geometry" />
        </mxCell>
        <mxCell id="-LMKMiagCElDo1qkPN0c-71" value="" style="endArrow=none;html=1;entryX=0.5;entryY=0;entryDx=0;entryDy=0;exitX=0.5;exitY=1;exitDx=0;exitDy=0;" edge="1" parent="1" source="-LMKMiagCElDo1qkPN0c-70" target="mNS4h6scgJhuOr-iy2WU-2">
          <mxGeometry width="50" height="50" relative="1" as="geometry">
            <mxPoint x="358.5" y="9.999999999999773" as="sourcePoint" />
            <mxPoint x="-60" y="9.999999999999773" as="targetPoint" />
          </mxGeometry>
        </mxCell>
        <mxCell id="-LMKMiagCElDo1qkPN0c-72" value="" style="endArrow=none;html=1;entryX=0.5;entryY=1;entryDx=0;entryDy=0;exitX=0.5;exitY=0;exitDx=0;exitDy=0;" edge="1" parent="1" source="-LMKMiagCElDo1qkPN0c-70" target="-LMKMiagCElDo1qkPN0c-55">
          <mxGeometry width="50" height="50" relative="1" as="geometry">
            <mxPoint x="430" y="-160.00000000000023" as="sourcePoint" />
            <mxPoint x="-60" y="-5.000000000000227" as="targetPoint" />
          </mxGeometry>
        </mxCell>
        <mxCell id="-LMKMiagCElDo1qkPN0c-75" value="" style="endArrow=none;html=1;exitX=1;exitY=0.5;exitDx=0;exitDy=0;entryX=0;entryY=0.5;entryDx=0;entryDy=0;" edge="1" parent="1" source="mNS4h6scgJhuOr-iy2WU-61" target="-LMKMiagCElDo1qkPN0c-37">
          <mxGeometry width="50" height="50" relative="1" as="geometry">
            <mxPoint x="-880" y="100" as="sourcePoint" />
            <mxPoint x="-640" y="-5" as="targetPoint" />
          </mxGeometry>
        </mxCell>
        <mxCell id="-LMKMiagCElDo1qkPN0c-76" value="" style="endArrow=none;html=1;exitX=1;exitY=0.5;exitDx=0;exitDy=0;" edge="1" parent="1" source="-LMKMiagCElDo1qkPN0c-37">
          <mxGeometry width="50" height="50" relative="1" as="geometry">
            <mxPoint x="-870" y="120" as="sourcePoint" />
            <mxPoint x="-190" as="targetPoint" />
          </mxGeometry>
        </mxCell>
        <mxCell id="-LMKMiagCElDo1qkPN0c-78" value="1" style="text;html=1;strokeColor=none;fillColor=none;align=center;verticalAlign=middle;whiteSpace=wrap;rounded=0;" vertex="1" parent="1">
          <mxGeometry x="-140" y="-60" width="40" height="20" as="geometry" />
        </mxCell>
        <mxCell id="-LMKMiagCElDo1qkPN0c-79" value="M" style="text;html=1;strokeColor=none;fillColor=none;align=center;verticalAlign=middle;whiteSpace=wrap;rounded=0;" vertex="1" parent="1">
          <mxGeometry x="-130" y="-670" width="40" height="20" as="geometry" />
        </mxCell>
        <mxCell id="-LMKMiagCElDo1qkPN0c-80" value="1" style="text;html=1;strokeColor=none;fillColor=none;align=center;verticalAlign=middle;whiteSpace=wrap;rounded=0;" vertex="1" parent="1">
          <mxGeometry x="-67.25" y="-20" width="40" height="20" as="geometry" />
        </mxCell>
        <mxCell id="-LMKMiagCElDo1qkPN0c-81" value="1" style="text;html=1;strokeColor=none;fillColor=none;align=center;verticalAlign=middle;whiteSpace=wrap;rounded=0;" vertex="1" parent="1">
          <mxGeometry x="-110" y="-30" width="40" height="20" as="geometry" />
        </mxCell>
        <mxCell id="-LMKMiagCElDo1qkPN0c-88" value="CONSULTANT_ESTABLISHMENT" style="rounded=0;whiteSpace=wrap;html=1;" vertex="1" parent="1">
          <mxGeometry x="-823" y="-537.5" width="220" height="60" as="geometry" />
        </mxCell>
        <mxCell id="-LMKMiagCElDo1qkPN0c-89" value="" style="endArrow=none;html=1;entryX=0.5;entryY=1;entryDx=0;entryDy=0;exitX=0.75;exitY=0;exitDx=0;exitDy=0;" edge="1" parent="1" source="-LMKMiagCElDo1qkPN0c-88" target="-LMKMiagCElDo1qkPN0c-97">
          <mxGeometry width="50" height="50" relative="1" as="geometry">
            <mxPoint x="-653" y="-542" as="sourcePoint" />
            <mxPoint x="-783" y="-577.5" as="targetPoint" />
          </mxGeometry>
        </mxCell>
        <mxCell id="-LMKMiagCElDo1qkPN0c-90" value="" style="endArrow=none;html=1;entryX=0;entryY=0.5;entryDx=0;entryDy=0;exitX=0;exitY=0.5;exitDx=0;exitDy=0;" edge="1" parent="1" source="-LMKMiagCElDo1qkPN0c-88" target="-LMKMiagCElDo1qkPN0c-94">
          <mxGeometry width="50" height="50" relative="1" as="geometry">
            <mxPoint x="-713" y="-257.5" as="sourcePoint" />
            <mxPoint x="-663" y="-307.5" as="targetPoint" />
          </mxGeometry>
        </mxCell>
        <mxCell id="-LMKMiagCElDo1qkPN0c-91" value="" style="endArrow=none;html=1;exitX=0.5;exitY=0;exitDx=0;exitDy=0;entryX=0.25;entryY=1;entryDx=0;entryDy=0;" edge="1" parent="1" source="-LMKMiagCElDo1qkPN0c-98" target="-LMKMiagCElDo1qkPN0c-88">
          <mxGeometry width="50" height="50" relative="1" as="geometry">
            <mxPoint x="-823" y="-167.5" as="sourcePoint" />
            <mxPoint x="-663" y="-477.5" as="targetPoint" />
          </mxGeometry>
        </mxCell>
        <mxCell id="-LMKMiagCElDo1qkPN0c-92" value="" style="endArrow=none;html=1;entryX=0.5;entryY=1;entryDx=0;entryDy=0;" edge="1" parent="1" target="-LMKMiagCElDo1qkPN0c-96">
          <mxGeometry width="50" height="50" relative="1" as="geometry">
            <mxPoint x="-763" y="-537" as="sourcePoint" />
            <mxPoint x="-763" y="-207.5" as="targetPoint" />
          </mxGeometry>
        </mxCell>
        <mxCell id="-LMKMiagCElDo1qkPN0c-94" value="&lt;b&gt;address&lt;/b&gt;" style="ellipse;whiteSpace=wrap;html=1;" vertex="1" parent="1">
          <mxGeometry x="-993" y="-547.5" width="140" height="80" as="geometry" />
        </mxCell>
        <mxCell id="-LMKMiagCElDo1qkPN0c-96" value="&lt;u&gt;&lt;b&gt;id&lt;/b&gt;&lt;/u&gt;" style="ellipse;whiteSpace=wrap;html=1;" vertex="1" parent="1">
          <mxGeometry x="-833" y="-690" width="120" height="80" as="geometry" />
        </mxCell>
        <mxCell id="-LMKMiagCElDo1qkPN0c-97" value="&lt;b&gt;name&lt;/b&gt;" style="ellipse;whiteSpace=wrap;html=1;" vertex="1" parent="1">
          <mxGeometry x="-673" y="-700" width="120" height="80" as="geometry" />
        </mxCell>
        <mxCell id="-LMKMiagCElDo1qkPN0c-98" value="&lt;b&gt;year&lt;/b&gt;" style="ellipse;whiteSpace=wrap;html=1;" vertex="1" parent="1">
          <mxGeometry x="-863" y="-434" width="120" height="80" as="geometry" />
        </mxCell>
        <mxCell id="-LMKMiagCElDo1qkPN0c-99" value="&lt;b&gt;updatedAt&lt;/b&gt;" style="ellipse;whiteSpace=wrap;html=1;" vertex="1" parent="1">
          <mxGeometry x="-653" y="-434" width="120" height="80" as="geometry" />
        </mxCell>
        <mxCell id="-LMKMiagCElDo1qkPN0c-100" value="" style="endArrow=none;html=1;entryX=0.75;entryY=1;entryDx=0;entryDy=0;exitX=0;exitY=0;exitDx=0;exitDy=0;" edge="1" parent="1" source="-LMKMiagCElDo1qkPN0c-99" target="-LMKMiagCElDo1qkPN0c-88">
          <mxGeometry width="50" height="50" relative="1" as="geometry">
            <mxPoint x="-663" y="-397.5" as="sourcePoint" />
            <mxPoint x="-673" y="-467.5" as="targetPoint" />
          </mxGeometry>
        </mxCell>
        <mxCell id="-LMKMiagCElDo1qkPN0c-101" value="&lt;b&gt;createdAt&lt;/b&gt;" style="ellipse;whiteSpace=wrap;html=1;" vertex="1" parent="1">
          <mxGeometry x="-533" y="-547.5" width="120" height="80" as="geometry" />
        </mxCell>
        <mxCell id="-LMKMiagCElDo1qkPN0c-102" value="" style="endArrow=none;html=1;entryX=1;entryY=0.5;entryDx=0;entryDy=0;exitX=0;exitY=0.5;exitDx=0;exitDy=0;" edge="1" parent="1" source="-LMKMiagCElDo1qkPN0c-101" target="-LMKMiagCElDo1qkPN0c-88">
          <mxGeometry width="50" height="50" relative="1" as="geometry">
            <mxPoint x="-523" y="-477.5" as="sourcePoint" />
            <mxPoint x="-643" y="-467.5" as="targetPoint" />
          </mxGeometry>
        </mxCell>
        <mxCell id="-LMKMiagCElDo1qkPN0c-103" value="CONSULTANT_SPECIALISATION" style="rounded=0;whiteSpace=wrap;html=1;" vertex="1" parent="1">
          <mxGeometry x="-1460" y="-253.5" width="220" height="60" as="geometry" />
        </mxCell>
        <mxCell id="-LMKMiagCElDo1qkPN0c-104" value="" style="endArrow=none;html=1;entryX=0.5;entryY=1;entryDx=0;entryDy=0;exitX=0.75;exitY=0;exitDx=0;exitDy=0;" edge="1" parent="1" source="-LMKMiagCElDo1qkPN0c-103" target="-LMKMiagCElDo1qkPN0c-110">
          <mxGeometry width="50" height="50" relative="1" as="geometry">
            <mxPoint x="-1300" y="-258" as="sourcePoint" />
            <mxPoint x="-1430" y="-293.5" as="targetPoint" />
          </mxGeometry>
        </mxCell>
        <mxCell id="-LMKMiagCElDo1qkPN0c-105" value="" style="endArrow=none;html=1;entryX=0;entryY=0.5;entryDx=0;entryDy=0;exitX=0;exitY=0.5;exitDx=0;exitDy=0;" edge="1" parent="1" source="-LMKMiagCElDo1qkPN0c-103" target="-LMKMiagCElDo1qkPN0c-108">
          <mxGeometry width="50" height="50" relative="1" as="geometry">
            <mxPoint x="-1360" y="26.5" as="sourcePoint" />
            <mxPoint x="-1310" y="-23.5" as="targetPoint" />
          </mxGeometry>
        </mxCell>
        <mxCell id="-LMKMiagCElDo1qkPN0c-107" value="" style="endArrow=none;html=1;entryX=0.5;entryY=1;entryDx=0;entryDy=0;" edge="1" parent="1" target="-LMKMiagCElDo1qkPN0c-109">
          <mxGeometry width="50" height="50" relative="1" as="geometry">
            <mxPoint x="-1410" y="-253" as="sourcePoint" />
            <mxPoint x="-1410" y="76.5" as="targetPoint" />
          </mxGeometry>
        </mxCell>
        <mxCell id="-LMKMiagCElDo1qkPN0c-108" value="&lt;b&gt;YearOfExp&lt;/b&gt;" style="ellipse;whiteSpace=wrap;html=1;" vertex="1" parent="1">
          <mxGeometry x="-1640" y="-263.5" width="140" height="80" as="geometry" />
        </mxCell>
        <mxCell id="-LMKMiagCElDo1qkPN0c-109" value="&lt;u&gt;&lt;b&gt;id&lt;/b&gt;&lt;/u&gt;" style="ellipse;whiteSpace=wrap;html=1;" vertex="1" parent="1">
          <mxGeometry x="-1490" y="-400" width="120" height="80" as="geometry" />
        </mxCell>
        <mxCell id="-LMKMiagCElDo1qkPN0c-110" value="&lt;b&gt;speclalisation_id&lt;/b&gt;" style="ellipse;whiteSpace=wrap;html=1;" vertex="1" parent="1">
          <mxGeometry x="-1340" y="-400" width="120" height="80" as="geometry" />
        </mxCell>
        <mxCell id="-LMKMiagCElDo1qkPN0c-112" value="&lt;b&gt;updatedAt&lt;/b&gt;" style="ellipse;whiteSpace=wrap;html=1;" vertex="1" parent="1">
          <mxGeometry x="-1140" y="-263.5" width="120" height="80" as="geometry" />
        </mxCell>
        <mxCell id="-LMKMiagCElDo1qkPN0c-113" value="" style="endArrow=none;html=1;entryX=1;entryY=0.5;entryDx=0;entryDy=0;exitX=0;exitY=0.5;exitDx=0;exitDy=0;" edge="1" parent="1" source="-LMKMiagCElDo1qkPN0c-112" target="-LMKMiagCElDo1qkPN0c-103">
          <mxGeometry width="50" height="50" relative="1" as="geometry">
            <mxPoint x="-1310" y="-113.5" as="sourcePoint" />
            <mxPoint x="-1320" y="-183.5" as="targetPoint" />
          </mxGeometry>
        </mxCell>
        <mxCell id="-LMKMiagCElDo1qkPN0c-114" value="&lt;b&gt;createdAt&lt;/b&gt;" style="ellipse;whiteSpace=wrap;html=1;" vertex="1" parent="1">
          <mxGeometry x="-1470" y="-160" width="120" height="80" as="geometry" />
        </mxCell>
        <mxCell id="-LMKMiagCElDo1qkPN0c-116" value="" style="endArrow=none;html=1;entryX=0.25;entryY=1;entryDx=0;entryDy=0;exitX=0.5;exitY=0;exitDx=0;exitDy=0;" edge="1" parent="1" source="-LMKMiagCElDo1qkPN0c-114" target="-LMKMiagCElDo1qkPN0c-103">
          <mxGeometry width="50" height="50" relative="1" as="geometry">
            <mxPoint x="-1179.9999999999932" y="-223.5" as="sourcePoint" />
            <mxPoint x="-1240" y="-223.5" as="targetPoint" />
          </mxGeometry>
        </mxCell>
        <mxCell id="-LMKMiagCElDo1qkPN0c-117" value="Gives" style="rhombus;whiteSpace=wrap;html=1;" vertex="1" parent="1">
          <mxGeometry x="-743" y="-110" width="80" height="80" as="geometry" />
        </mxCell>
        <mxCell id="-LMKMiagCElDo1qkPN0c-118" value="Gives" style="rhombus;whiteSpace=wrap;html=1;" vertex="1" parent="1">
          <mxGeometry x="-1000" y="-40" width="80" height="80" as="geometry" />
        </mxCell>
        <mxCell id="-LMKMiagCElDo1qkPN0c-119" value="" style="endArrow=none;html=1;exitX=0.5;exitY=0;exitDx=0;exitDy=0;entryX=0.5;entryY=1;entryDx=0;entryDy=0;" edge="1" parent="1" source="-LMKMiagCElDo1qkPN0c-117" target="-LMKMiagCElDo1qkPN0c-88">
          <mxGeometry width="50" height="50" relative="1" as="geometry">
            <mxPoint x="-550" y="190" as="sourcePoint" />
            <mxPoint x="-180" y="10" as="targetPoint" />
          </mxGeometry>
        </mxCell>
        <mxCell id="-LMKMiagCElDo1qkPN0c-120" value="" style="endArrow=none;html=1;exitX=0;exitY=0.5;exitDx=0;exitDy=0;entryX=1;entryY=0.5;entryDx=0;entryDy=0;" edge="1" parent="1" source="mNS4h6scgJhuOr-iy2WU-2" target="-LMKMiagCElDo1qkPN0c-118">
          <mxGeometry width="50" height="50" relative="1" as="geometry">
            <mxPoint x="-540" y="200" as="sourcePoint" />
            <mxPoint x="-170" y="20" as="targetPoint" />
          </mxGeometry>
        </mxCell>
        <mxCell id="-LMKMiagCElDo1qkPN0c-121" value="" style="endArrow=none;html=1;exitX=0;exitY=0.5;exitDx=0;exitDy=0;entryX=0.5;entryY=1;entryDx=0;entryDy=0;" edge="1" parent="1" source="mNS4h6scgJhuOr-iy2WU-2" target="-LMKMiagCElDo1qkPN0c-117">
          <mxGeometry width="50" height="50" relative="1" as="geometry">
            <mxPoint x="-530" y="210" as="sourcePoint" />
            <mxPoint x="-160" y="30" as="targetPoint" />
          </mxGeometry>
        </mxCell>
        <mxCell id="-LMKMiagCElDo1qkPN0c-122" value="" style="endArrow=none;html=1;entryX=0;entryY=0.5;entryDx=0;entryDy=0;" edge="1" parent="1" source="-LMKMiagCElDo1qkPN0c-103" target="-LMKMiagCElDo1qkPN0c-118">
          <mxGeometry width="50" height="50" relative="1" as="geometry">
            <mxPoint x="-520" y="220" as="sourcePoint" />
            <mxPoint x="-150" y="40" as="targetPoint" />
          </mxGeometry>
        </mxCell>
      </root>
    </mxGraphModel>
  </diagram>
</mxfile>
